# xmcd
#
# Track frame offsets:
#	150
#	14878
#	32198
#	49431
#	61857
#	75463
#	88917
#	103793
#	118607
#	133972
#	150687
#	166462
#	182724
#	199887
#	212912
#	228151
#	248792
#	266238
#	281740
#	296711
#
# Disc length: 4131 seconds
#
# Revision: 0
# Processed by: cddbd v1.5.2PL0 Copyright (c) Steve Scherf et al.
# Submitted via: EZCDAudioConverter 7.0.6.1
#
DISCID=38102114
DTITLE=Nu Country Traxx Volume 224 US
DYEAR=2017
DGENRE=country
TTITLE0=Keith Urban - Female
TTITLE1=David Lee Murphy and Kenny Chesney - Everything's Gonna Be Alright
TTITLE2=Kip Moore - Last Shot
TTITLE3=Bebe Rexha ft. Florida Georgia Line - Meant To Be
TTITLE4=Jerrod Niemann - I Got This
TTITLE5=Kane Brown - Heaven
TTITLE6=Morgan Wallen ft. Florida Georgia Line - Up Down
TTITLE7=Michael Tyler - Hey Mama
TTITLE8=Lindsay Ell - Criminal
TTITLE9=Eric Burgett - Town You Never Heard Of
TTITLE10=Irlene Mandrell - Thanks To You
TTITLE11=Canaan Cox - Lie
TTITLE12=Stephanie Quayle - Selfish
TTITLE13=Richard Schroder - Drivin'
TTITLE14=Patrick Darrah - I Never Got Over You
TTITLE15=Lefroy - Knockin' On Heaven's Door
TTITLE16=Dennie Hall - Painkiller
TTITLE17=Ashla Taylor - Truth Is
TTITLE18=Luke Bryan - Oh Holy Night
TTITLE19=Phil Vassar and Kellie Pickler - The Naughty List
EXTD=
EXTT0=
EXTT1=
EXTT2=
EXTT3=
EXTT4=
EXTT5=
EXTT6=
EXTT7=
EXTT8=
EXTT9=
EXTT10=
EXTT11=
EXTT12=
EXTT13=
EXTT14=
EXTT15=
EXTT16=
EXTT17=
EXTT18=
EXTT19=
PLAYORDER=
